<svg width="80" height="80" viewBox="0 0 80 80" fill="none" xmlns="http://www.w3.org/2000/svg">
<path fill-rule="evenodd" clip-rule="evenodd" d="M1.5 11C1.5 9.34315 2.84315 8 4.5 8H20C20.5523 8 21 8.44772 21 9C21 9.55228 20.5523 10 20 10H4.5C3.94772 10 3.5 10.4477 3.5 11V75.5C3.5 76.0523 3.94772 76.5 4.5 76.5H53.4852C54.0404 76.5 54.4893 76.0478 54.4852 75.4927L54.0146 11.4926C54.0106 10.9432 53.5641 10.5 53.0147 10.5H37C36.4477 10.5 36 10.0523 36 9.5C36 8.94772 36.4477 8.5 37 8.5H53.0147C54.6629 8.5 56.0025 9.82974 56.0146 11.4779L56.4852 75.4779C56.4974 77.1434 55.1507 78.5 53.4852 78.5H4.5C2.84315 78.5 1.5 77.1569 1.5 75.5V11Z" fill="#43AC6F"/>
<path fill-rule="evenodd" clip-rule="evenodd" d="M17.5518 43.3818C18.1435 41.4883 20.8339 41.5186 21.3827 43.425L29.0103 69.921L32.8295 56.9357C33.0798 56.0845 33.861 55.5 34.7482 55.5H47.5C48.0523 55.5 48.5 55.9477 48.5 56.5C48.5 57.0523 48.0523 57.5 47.5 57.5L34.7482 57.5L30.929 70.4853C30.3643 72.4053 27.642 72.3975 27.0883 70.4743L19.4607 43.9783L15.6738 56.0965C15.4128 56.9315 14.6396 57.5 13.7648 57.5H9C8.44772 57.5 8 57.0523 8 56.5C8 55.9477 8.44772 55.5 9 55.5H13.7648L17.5518 43.3818Z" fill="#43AC6F"/>
<path fill-rule="evenodd" clip-rule="evenodd" d="M42.5988 20.0013C41.6194 19.9726 40.5537 20.4167 39.8264 20.7833C39.5056 20.945 39.2214 21.1071 38.9992 21.2409C38.7772 21.1073 38.4936 20.9456 38.1736 20.7843C37.4463 20.4176 36.3806 19.9736 35.4012 20.0023C33.4523 20.0594 31.9829 21.0031 31.0755 22.4652C30.1906 23.8912 29.8788 25.7405 30.0413 27.6154C30.1565 28.9447 30.8456 30.1216 31.6839 31.0969C32.5296 32.0808 33.5978 32.9421 34.6196 33.6458C35.6464 34.3529 36.6564 34.9212 37.4071 35.312C37.7834 35.5079 38.0969 35.6604 38.3177 35.7645C38.3818 35.7947 38.438 35.8209 38.4859 35.8429C38.6308 35.943 38.8018 35.9982 38.9775 35.999C39.1722 36.0084 39.3634 35.9506 39.5223 35.8381C39.5683 35.8169 39.6218 35.792 39.6823 35.7635C39.9031 35.6594 40.2166 35.5069 40.5929 35.311C41.3436 34.9202 42.3537 34.3519 43.3804 33.6448C44.4022 32.9411 45.4704 32.0798 46.3161 31.0959C47.1544 30.1206 47.8435 28.9437 47.9587 27.6144C48.1212 25.7395 47.8094 23.8903 46.9245 22.4642C46.0171 21.0021 44.5477 20.0584 42.5988 20.0013ZM38.999 34.0217C39.1983 33.927 39.4706 33.7936 39.7937 33.6255C40.5021 33.2567 41.445 32.7254 42.3938 32.072C43.3476 31.4152 44.2776 30.6552 44.9814 29.8364C45.6926 29.0089 46.1042 28.2015 46.1698 27.4443C46.3066 25.8664 46.0269 24.4704 45.4186 23.4902C44.8327 22.546 43.9072 21.9225 42.5486 21.8827C42.0302 21.8675 41.2996 22.1293 40.6051 22.4793C40.2779 22.6443 39.992 22.8115 39.788 22.9375C39.7363 22.9695 39.6901 22.9986 39.6501 23.0242C39.4692 23.2118 39.2231 23.3066 38.9767 23.2947C38.7484 23.2933 38.5239 23.2009 38.3549 23.0283C38.3138 23.002 38.2659 22.9718 38.212 22.9385C38.008 22.8125 37.7221 22.6453 37.3949 22.4803C36.7004 22.1303 35.9698 21.8685 35.4514 21.8837C34.0928 21.9234 33.1673 22.547 32.5814 23.4912C31.9731 24.4714 31.6934 25.8673 31.8302 27.4452C31.8958 28.2025 32.3074 29.0099 33.0186 29.8374C33.7224 30.6562 34.6524 31.4162 35.6062 32.073C36.555 32.7264 37.4979 33.2577 38.2063 33.6265C38.5283 33.794 38.7998 33.9271 38.999 34.0217Z" fill="#43AC6F"/>
<path fill-rule="evenodd" clip-rule="evenodd" d="M8 22C8 21.4477 8.44772 21 9 21H23C23.5523 21 24 21.4477 24 22C24 22.5523 23.5523 23 23 23H9C8.44772 23 8 22.5523 8 22Z" fill="#43AC6F"/>
<path fill-rule="evenodd" clip-rule="evenodd" d="M8 28C8 27.4477 8.44772 27 9 27H23C23.5523 27 24 27.4477 24 28C24 28.5523 23.5523 29 23 29H9C8.44772 29 8 28.5523 8 28Z" fill="#43AC6F"/>
<path fill-rule="evenodd" clip-rule="evenodd" d="M8 34C8 33.4477 8.44772 33 9 33H23C23.5523 33 24 33.4477 24 34C24 34.5523 23.5523 35 23 35H9C8.44772 35 8 34.5523 8 34Z" fill="#43AC6F"/>
<path fill-rule="evenodd" clip-rule="evenodd" d="M29 6C27.3431 6 26 7.34315 26 9C26 10.6569 27.3431 12 29 12C30.6569 12 32 10.6569 32 9C32 7.34315 30.6569 6 29 6ZM24 9C24 6.23858 26.2386 4 29 4C31.7614 4 34 6.23858 34 9C34 11.7614 31.7614 14 29 14C26.2386 14 24 11.7614 24 9Z" fill="#43AC6F"/>
</svg>
