<svg width="147" height="32" viewBox="0 0 147 32" fill="none" xmlns="http://www.w3.org/2000/svg">
<circle cx="16" cy="16" r="16" fill="#43AC6F"/>
<path d="M18.3521 13.6536C15.0598 16.4215 12.1172 19.0413 11.2939 23.5C14.4937 21.2669 18.7268 20.7376 20.9699 18.0376C23.2848 15.2522 22.8742 11.3997 23 7.5C20.3066 8.77944 17.6387 9.4886 14.9088 10.1158C9.68453 11.3164 7.47444 17.0015 10.1242 22.2856C13.0599 16.9771 15.1895 14.6666 18.3525 13.6538L18.3521 13.6536Z" fill="white"/>
<path d="M56.0653 7.04545V24.5H53.2528L45.0284 12.6108H44.8835V24.5H41.7216V7.04545H44.5511L52.767 18.9432H52.9205V7.04545H56.0653ZM67.478 18.9943V11.4091H70.5633V24.5H67.5718V22.1733H67.4354C67.14 22.9062 66.6542 23.5057 65.978 23.9716C65.3076 24.4375 64.4809 24.6705 63.4979 24.6705C62.64 24.6705 61.8814 24.4801 61.2224 24.0994C60.5689 23.7131 60.0576 23.1534 59.6883 22.4205C59.3189 21.6818 59.1343 20.7898 59.1343 19.7443V11.4091H62.2195V19.267C62.2195 20.0966 62.4468 20.7557 62.9013 21.2443C63.3559 21.733 63.9525 21.9773 64.6911 21.9773C65.1457 21.9773 65.586 21.8665 66.0121 21.6449C66.4383 21.4233 66.7877 21.0938 67.0604 20.6562C67.3388 20.2131 67.478 19.6591 67.478 18.9943ZM80.0328 11.4091V13.7955H72.5072V11.4091H80.0328ZM74.3652 8.27273H77.4504V20.5625C77.4504 20.9773 77.5129 21.2955 77.6379 21.517C77.7686 21.733 77.939 21.8807 78.1493 21.9602C78.3595 22.0398 78.5924 22.0795 78.8481 22.0795C79.0413 22.0795 79.2174 22.0653 79.3765 22.0369C79.5413 22.0085 79.6663 21.983 79.7515 21.9602L80.2714 24.3722C80.1066 24.429 79.8709 24.4915 79.564 24.5597C79.2629 24.6278 78.8936 24.6676 78.4561 24.679C77.6834 24.7017 76.9873 24.5852 76.368 24.3295C75.7487 24.0682 75.2572 23.6648 74.8936 23.1193C74.5356 22.5739 74.3595 21.892 74.3652 21.0739V8.27273ZM82.373 24.5V11.4091H85.3645V13.5909H85.5009C85.7395 12.8352 86.1486 12.2528 86.7282 11.8438C87.3134 11.429 87.981 11.2216 88.731 11.2216C88.9014 11.2216 89.0918 11.2301 89.302 11.2472C89.5179 11.2585 89.6969 11.2784 89.8389 11.3068V14.1449C89.7083 14.0994 89.5009 14.0597 89.2168 14.0256C88.9384 13.9858 88.6685 13.9659 88.4071 13.9659C87.8446 13.9659 87.3389 14.0881 86.8901 14.3324C86.4469 14.571 86.0975 14.9034 85.8418 15.3295C85.5861 15.7557 85.4583 16.2472 85.4583 16.804V24.5H82.373ZM91.6487 24.5V11.4091H94.7339V24.5H91.6487ZM93.1998 9.55114C92.7112 9.55114 92.2907 9.3892 91.9384 9.06534C91.5862 8.73579 91.41 8.34091 91.41 7.88068C91.41 7.41477 91.5862 7.01989 91.9384 6.69602C92.2907 6.36648 92.7112 6.2017 93.1998 6.2017C93.6941 6.2017 94.1146 6.36648 94.4612 6.69602C94.8134 7.01989 94.9896 7.41477 94.9896 7.88068C94.9896 8.34091 94.8134 8.73579 94.4612 9.06534C94.1146 9.3892 93.6941 9.55114 93.1998 9.55114ZM103.377 24.7557C102.07 24.7557 100.948 24.4688 100.01 23.8949C99.0784 23.321 98.3597 22.5284 97.854 21.517C97.354 20.5 97.104 19.3295 97.104 18.0057C97.104 16.6761 97.3597 15.5028 97.871 14.4858C98.3824 13.4631 99.104 12.6676 100.036 12.0994C100.973 11.5256 102.081 11.2386 103.36 11.2386C104.422 11.2386 105.362 11.4347 106.181 11.8267C107.005 12.2131 107.661 12.7614 108.149 13.4716C108.638 14.1761 108.916 15 108.985 15.9432H106.036C105.916 15.3125 105.632 14.7869 105.184 14.3665C104.74 13.9403 104.147 13.7273 103.402 13.7273C102.772 13.7273 102.218 13.8977 101.74 14.2386C101.263 14.5739 100.891 15.0568 100.624 15.6875C100.362 16.3182 100.232 17.0739 100.232 17.9545C100.232 18.8466 100.362 19.6136 100.624 20.2557C100.885 20.892 101.252 21.3835 101.723 21.7301C102.201 22.071 102.76 22.2415 103.402 22.2415C103.857 22.2415 104.263 22.1562 104.621 21.9858C104.985 21.8097 105.289 21.5568 105.533 21.2273C105.777 20.8977 105.945 20.4972 106.036 20.0256H108.985C108.911 20.9517 108.638 21.7727 108.166 22.4886C107.695 23.1989 107.053 23.7557 106.24 24.1591C105.428 24.5568 104.473 24.7557 103.377 24.7557ZM115.045 24.7642C114.216 24.7642 113.468 24.6165 112.804 24.321C112.145 24.0199 111.622 23.5767 111.235 22.9915C110.855 22.4062 110.664 21.6847 110.664 20.8267C110.664 20.0881 110.801 19.4773 111.073 18.9943C111.346 18.5114 111.718 18.125 112.19 17.8352C112.662 17.5455 113.193 17.3267 113.784 17.179C114.38 17.0256 114.997 16.9148 115.633 16.8466C116.4 16.767 117.022 16.696 117.5 16.6335C117.977 16.5653 118.323 16.4631 118.539 16.3267C118.761 16.1847 118.872 15.9659 118.872 15.6705V15.6193C118.872 14.9773 118.681 14.4801 118.301 14.1278C117.92 13.7756 117.372 13.5994 116.656 13.5994C115.9 13.5994 115.301 13.7642 114.858 14.0938C114.42 14.4233 114.125 14.8125 113.971 15.2614L111.091 14.8523C111.318 14.0568 111.693 13.392 112.216 12.858C112.738 12.3182 113.377 11.9148 114.133 11.6477C114.889 11.375 115.724 11.2386 116.639 11.2386C117.27 11.2386 117.897 11.3125 118.522 11.4602C119.147 11.608 119.718 11.8523 120.235 12.1932C120.752 12.5284 121.167 12.9858 121.48 13.5653C121.798 14.1449 121.957 14.8693 121.957 15.7386V24.5H118.991V22.7017H118.889C118.701 23.0653 118.437 23.4062 118.096 23.7244C117.761 24.0369 117.338 24.2898 116.826 24.483C116.321 24.6705 115.727 24.7642 115.045 24.7642ZM115.846 22.4972C116.466 22.4972 117.002 22.375 117.457 22.1307C117.912 21.8807 118.261 21.5511 118.505 21.142C118.755 20.733 118.88 20.2869 118.88 19.804V18.2614C118.784 18.3409 118.619 18.4148 118.386 18.483C118.159 18.5511 117.903 18.6108 117.619 18.6619C117.335 18.7131 117.054 18.7585 116.775 18.7983C116.497 18.8381 116.255 18.8722 116.051 18.9006C115.591 18.9631 115.179 19.0653 114.815 19.2074C114.451 19.3494 114.164 19.5483 113.954 19.804C113.744 20.054 113.639 20.3778 113.639 20.7756C113.639 21.3438 113.846 21.7727 114.261 22.0625C114.676 22.3523 115.204 22.4972 115.846 22.4972ZM124.819 24.5V11.4091H127.811V13.5909H127.947C128.186 12.8352 128.595 12.2528 129.174 11.8438C129.76 11.429 130.427 11.2216 131.177 11.2216C131.348 11.2216 131.538 11.2301 131.748 11.2472C131.964 11.2585 132.143 11.2784 132.285 11.3068V14.1449C132.155 14.0994 131.947 14.0597 131.663 14.0256C131.385 13.9858 131.115 13.9659 130.853 13.9659C130.291 13.9659 129.785 14.0881 129.336 14.3324C128.893 14.571 128.544 14.9034 128.288 15.3295C128.032 15.7557 127.905 16.2472 127.905 16.804V24.5H124.819ZM139.351 24.7557C138.039 24.7557 136.905 24.483 135.951 23.9375C135.002 23.3864 134.272 22.608 133.76 21.6023C133.249 20.5909 132.993 19.4006 132.993 18.0312C132.993 16.6847 133.249 15.5028 133.76 14.4858C134.277 13.4631 134.999 12.6676 135.925 12.0994C136.851 11.5256 137.939 11.2386 139.189 11.2386C139.996 11.2386 140.758 11.3693 141.473 11.6307C142.195 11.8864 142.831 12.2841 143.383 12.8239C143.939 13.3636 144.377 14.0511 144.695 14.8864C145.013 15.7159 145.172 16.7045 145.172 17.8523V18.7983H134.442V16.7188H142.215C142.209 16.1278 142.081 15.6023 141.831 15.142C141.581 14.6761 141.232 14.3097 140.783 14.0426C140.34 13.7756 139.823 13.642 139.232 13.642C138.601 13.642 138.047 13.7955 137.57 14.1023C137.093 14.4034 136.721 14.8011 136.454 15.2955C136.192 15.7841 136.059 16.321 136.053 16.9062V18.7216C136.053 19.483 136.192 20.1364 136.471 20.6818C136.749 21.2216 137.138 21.6364 137.638 21.9261C138.138 22.2102 138.723 22.3523 139.394 22.3523C139.843 22.3523 140.249 22.2898 140.613 22.1648C140.976 22.0341 141.292 21.8438 141.559 21.5938C141.826 21.3438 142.027 21.0341 142.164 20.6648L145.044 20.9886C144.863 21.75 144.516 22.4148 144.005 22.983C143.499 23.5455 142.851 23.983 142.062 24.2955C141.272 24.6023 140.368 24.7557 139.351 24.7557Z" fill="#141517"/>
</svg>
