<svg width="100" height="80" viewBox="0 0 100 80" fill="none" xmlns="http://www.w3.org/2000/svg">
<path fill-rule="evenodd" clip-rule="evenodd" d="M56.7808 8.03601H75.4244C76.242 8.03601 76.9111 8.67155 76.9111 9.44805L76.9096 77.5882C76.9096 78.3647 76.2406 79 75.4229 79H22.4866C21.669 79 21 78.3647 21 77.5882L21.0008 9.44805C21.0008 8.67157 21.6698 8.03618 22.4874 8.03618L40.5168 8.03618V10.8617H23.9758V76.1762H73.8646L73.8638 10.8617H56.7808V8.03601Z" fill="#6FCF97"/>
<path d="M48.9553 12.9082C51.2603 12.9082 53.1188 11.1431 53.1188 8.95408C53.1188 6.76502 51.2603 5 48.9553 5C46.6503 5 44.7919 6.76502 44.7919 8.95408C44.7919 11.1431 46.6503 12.9082 48.9553 12.9082ZM48.9553 7.8953C49.6243 7.8953 50.1448 8.38957 50.1448 9.02495C50.1448 9.66034 49.6243 10.1546 48.9553 10.1546C48.2863 10.1546 47.7659 9.66034 47.7659 9.02495C47.7659 8.38957 48.2863 7.8953 48.9553 7.8953Z" fill="#A5A6F6"/>
<path d="M62.7106 19.8986C61.4465 19.8986 60.2571 20.2518 59.2161 20.8872C58.1753 20.2518 56.9858 19.8986 55.7216 19.8986C52.0039 19.8986 48.9559 22.8643 49.0298 26.5362V26.8893C49.1044 28.9373 50.2939 30.8434 52.1524 32.1142L58.4723 36.3505C58.6956 36.4916 59.0674 36.6327 59.3646 36.6327C59.6618 36.6327 59.9597 36.5618 60.2569 36.3505L66.5768 32.0433C68.4352 30.7725 69.5509 28.8656 69.6256 26.8184V26.4652C69.6256 24.7002 68.9565 23.0755 67.6924 21.8047C66.205 20.6049 64.495 19.8986 62.7104 19.8986H62.7106ZM66.5023 26.7482C66.4276 27.9488 65.7586 29.0074 64.6438 29.7848L59.2161 33.5268L53.7885 29.8549C52.6729 29.1486 52.0039 28.019 51.93 26.8184V26.6063C51.93 24.4882 53.6399 22.7933 55.7216 22.7933C56.6139 22.7933 57.5062 23.1465 58.1752 23.7109C58.7703 24.2052 59.6618 24.2052 60.1822 23.7109C60.8512 23.0756 61.7435 22.7933 62.6358 22.7224C63.602 22.7224 64.5689 23.0756 65.2379 23.7819C65.9816 24.4882 66.3534 25.4767 66.3534 26.4653C66.502 26.6072 66.502 26.6774 66.502 26.7483L66.5023 26.7482Z" fill="#6FCF97"/>
<path d="M29.9224 23.0761H42.7848C43.6024 23.0761 44.2714 22.4407 44.2714 21.6642C44.2714 20.8877 43.6024 20.2523 42.7848 20.2523L29.9224 20.2516C29.1048 20.2516 28.4358 20.887 28.4358 21.6635C28.4358 22.4407 29.1048 23.0761 29.9224 23.0761Z" fill="#6FCF97"/>
<path d="M29.9224 30.1366H42.7848C43.6024 30.1366 44.2714 29.5012 44.2714 28.7247C44.2714 27.9483 43.6024 27.3129 42.7848 27.3129L29.9224 27.3121C29.1048 27.3121 28.4358 27.9475 28.4358 28.724C28.4358 29.5012 29.1048 30.1366 29.9224 30.1366Z" fill="#6FCF97"/>
<path d="M29.9224 37.199H42.7848C43.6024 37.199 44.2714 36.5636 44.2714 35.7871C44.2714 35.0106 43.6024 34.3753 42.7848 34.3753L29.9224 34.3745C29.1048 34.3745 28.4358 35.0099 28.4358 35.7864C28.4358 36.5629 29.1048 37.199 29.9224 37.199Z" fill="#6FCF97"/>
<path d="M67.9881 54.9928H53.713C53.044 54.9928 52.5235 55.4162 52.3002 55.9814L48.9543 65.8668L40.8507 41.8597C40.6274 41.2945 40.1069 40.8712 39.4379 40.8712C38.7689 40.8712 38.2484 41.2945 38.0252 41.8597L33.6385 54.9935H29.9954C29.1778 54.9935 28.5088 55.6289 28.5088 56.4054C28.5088 57.1818 29.1778 57.8172 29.9954 57.8172H34.7541C35.4231 57.8172 35.9436 57.3939 36.1669 56.8287L39.5128 46.9433L47.6164 70.9504C47.8397 71.5156 48.3602 71.9389 49.0292 71.9389C49.6982 71.9389 50.2187 71.5156 50.4419 70.9504L54.9025 57.8165H68.062C68.8796 57.8165 69.5486 57.1812 69.5486 56.4047C69.5494 55.6282 68.8057 54.9928 67.9881 54.9928Z" fill="#A5A6F6"/>
<circle cx="88.5" cy="29.5" r="5.5" fill="#7879F1" fill-opacity="0.5"/>
<circle cx="4" cy="50" r="4" fill="#7879F1" fill-opacity="0.5"/>
<circle opacity="0.5" cx="92" cy="47" r="4" fill="#6FCF97"/>
<circle opacity="0.5" cx="12.5" cy="3.5" r="3.5" fill="#6FCF97"/>
</svg>
