<svg width="100" height="80" viewBox="0 0 100 80" fill="none" xmlns="http://www.w3.org/2000/svg">
<path d="M47.5216 17.9655C30.6831 17.9655 17 31.6405 17 48.479C17 65.3174 30.683 79 47.5216 79C64.3603 79 78.0327 65.3173 78.0327 48.479C78.0327 42.9704 76.5415 37.563 73.7177 32.8339C73.5503 32.5104 73.2563 32.27 72.9064 32.1705C72.5558 32.0709 72.1799 32.1204 71.8671 32.3078C71.5548 32.4945 71.3333 32.8027 71.2555 33.1585C71.1783 33.5144 71.2508 33.8867 71.457 34.1872C74.0369 38.508 75.3933 43.4476 75.3933 48.4797C75.3933 63.891 62.9335 76.3613 47.5217 76.3613C32.1101 76.3613 19.6396 63.8916 19.6396 48.4797C19.6396 33.0684 32.1095 20.6057 47.5217 20.6057C52.5538 20.6057 57.4912 21.9619 61.8121 24.5419C62.112 24.7446 62.4826 24.8147 62.8361 24.7357C63.1902 24.6574 63.496 24.437 63.6822 24.1265C63.8684 23.8155 63.919 23.4419 63.8218 23.0931C63.7246 22.7444 63.4878 22.4504 63.1678 22.2813C58.438 19.4568 53.0299 17.9663 47.5224 17.9663L47.5216 17.9655Z" fill="#6FCF97"/>
<path d="M47.5217 29.8996C37.2747 29.8996 28.9426 38.2321 28.9426 48.4783C28.9426 58.7244 37.2753 67.0554 47.5217 67.0554C57.768 67.0554 66.0992 58.7253 66.0992 48.4783C66.0992 46.2477 65.695 44.0378 64.9108 41.9492C64.8083 41.5969 64.5626 41.3029 64.2339 41.1385C63.9057 40.9741 63.5233 40.9541 63.1793 41.0831C62.8358 41.2121 62.5612 41.479 62.4216 41.819C62.2825 42.1589 62.2914 42.5413 62.4463 42.8748C63.1192 44.6664 63.4591 46.5647 63.4591 48.4782C63.4591 57.298 56.3418 64.425 47.5211 64.425C38.7011 64.425 31.574 57.2973 31.574 48.4782C31.574 39.6584 38.7018 32.539 47.5211 32.539C49.4342 32.539 51.3313 32.8795 53.1224 33.5518C53.8041 33.8022 54.5606 33.4551 54.8151 32.7747C55.0696 32.0942 54.7267 31.3359 54.048 31.0773C51.9606 30.2937 49.7518 29.8996 47.5217 29.8996Z" fill="#6FCF97"/>
<path d="M83.3538 5.00056C82.9891 4.98995 82.6362 5.13076 82.3793 5.3894L74.118 13.6506C73.7657 14.0105 73.6484 14.539 73.8163 15.0139L75.1956 18.9347L50.8142 43.2961C49.8585 42.6857 48.7338 42.3216 47.5225 42.3216C44.1353 42.3216 41.3544 45.0924 41.3544 48.4795C41.3544 51.8666 44.1358 54.6451 47.5225 54.6451C50.9097 54.6451 53.6805 51.8666 53.6805 48.4795C53.6805 47.2558 53.307 46.1182 52.6854 45.1572L77.0668 20.805L80.9871 22.1866C81.462 22.3545 81.9911 22.2372 82.3511 21.8849L90.6124 13.6214C90.9341 13.3003 91.0678 12.836 90.9671 12.393C90.8658 11.9499 90.5441 11.5899 90.1146 11.4403L86.0139 9.98918L84.5621 5.88854C84.3824 5.37008 83.9017 5.01718 83.3537 5.00186L83.3538 5.00056ZM82.7688 8.73047L83.7326 11.4676C83.8658 11.8406 84.1586 12.1334 84.5316 12.2666L87.2688 13.2304L81.0749 19.4266L77.7526 18.2489L76.5719 14.9267L82.7688 8.73047ZM47.5217 44.9602C49.4824 44.9602 51.0373 46.518 51.0373 48.4787C51.0373 50.4394 49.482 52.0048 47.5217 52.0048C45.5609 52.0048 43.9955 50.4394 43.9955 48.4787C43.9955 46.518 45.5609 44.9602 47.5217 44.9602Z" fill="#A5A6F6"/>
<circle cx="90" cy="35" r="7" fill="#7879F1" fill-opacity="0.5"/>
<circle cx="5" cy="35" r="5" fill="#7879F1" fill-opacity="0.5"/>
<circle opacity="0.5" cx="88" cy="66" r="3" fill="#6FCF97"/>
<circle opacity="0.5" cx="19" cy="11" r="3" fill="#6FCF97"/>
</svg>
