<svg width="80" height="80" viewBox="0 0 80 80" fill="none" xmlns="http://www.w3.org/2000/svg">
<path d="M68.2504 4.00057C67.8808 3.98982 67.5231 4.13253 67.2628 4.39466L58.8898 12.7675C58.5327 13.1323 58.4139 13.6679 58.5841 14.1492L59.982 18.123L35.2711 42.8136C34.3025 42.1949 33.1626 41.8259 31.9349 41.8259C28.502 41.8259 25.6834 44.6342 25.6834 48.067C25.6834 51.4999 28.5025 54.3159 31.9349 54.3159C35.3679 54.3159 38.1762 51.4999 38.1762 48.067C38.1762 46.8268 37.7976 45.6738 37.1676 44.6999L61.8785 20.0186L65.8518 21.4188C66.3331 21.589 66.8693 21.4702 67.2342 21.1131L75.6071 12.7379C75.9332 12.4124 76.0687 11.9419 75.9666 11.4929C75.8639 11.0438 75.5379 10.679 75.1026 10.5273L70.9464 9.0566L69.4751 4.90055C69.293 4.37508 68.8057 4.01741 68.2504 4.00188L68.2504 4.00057ZM67.6575 7.78088L68.6344 10.555V10.5545C68.7693 10.9324 69.0661 11.2298 69.4441 11.3648L72.2183 12.3416L65.9407 18.6216L62.5735 17.4279L61.3769 14.0608L67.6575 7.78088ZM31.9341 17.1407C14.8681 17.1407 1 31.0005 1 48.0665C1 65.1325 14.8679 79 31.9341 79C49.0003 79 62.8575 65.1324 62.8575 48.0665C62.8575 42.4835 61.3461 37.003 58.4841 32.21C58.3145 31.8822 58.0166 31.6386 57.6619 31.5376C57.3066 31.4367 56.9256 31.4869 56.6085 31.6768C56.292 31.8661 56.0675 32.1784 55.9887 32.539C55.9105 32.8997 55.9839 33.2771 56.1929 33.5816C58.8077 37.9608 60.1824 42.9671 60.1824 48.0672C60.1824 63.6868 47.5543 76.3256 31.9342 76.3256C16.3143 76.3256 3.67527 63.6875 3.67527 48.0672C3.67527 32.4477 16.3137 19.8165 31.9342 19.8165C37.0343 19.8165 42.0384 21.1911 46.4177 23.806V23.8054C46.7216 24.0108 47.0972 24.0824 47.4555 24.0024C47.8144 23.923 48.1243 23.6997 48.313 23.385C48.5017 23.0697 48.5531 22.6911 48.4545 22.3376C48.356 21.9841 48.116 21.6862 47.7917 21.5148C42.998 18.6521 37.5168 17.1415 31.9349 17.1415L31.9341 17.1407ZM31.9341 29.236C21.5486 29.236 13.104 37.6811 13.104 48.0658C13.104 58.4504 21.5492 66.894 31.9341 66.894C42.3189 66.894 50.7627 58.4513 50.7627 48.0658C50.7627 45.8051 50.353 43.5653 49.5582 41.4485H49.5577C49.4538 41.0914 49.2053 40.7934 48.8721 40.6268C48.5395 40.4602 48.152 40.4399 47.8033 40.5707C47.4551 40.7015 47.1769 40.972 47.0354 41.3165C46.8944 41.661 46.9034 42.0486 47.0604 42.3865C47.7424 44.2024 48.0869 46.1263 48.0869 48.0657C48.0869 57.0047 40.8734 64.228 31.9335 64.228C22.9943 64.228 15.7709 57.004 15.7709 48.0657C15.7709 39.1267 22.9951 31.9111 31.9335 31.9111C33.8724 31.9111 35.7952 32.2562 37.6105 32.9376H37.6111C38.302 33.1913 39.0681 32.8396 39.3261 32.15C39.5841 31.4603 39.2365 30.6918 38.5486 30.4296C36.433 29.6355 34.1944 29.236 31.9341 29.236ZM31.9341 44.5002C33.9214 44.5002 35.4973 46.079 35.4973 48.0662C35.4973 50.0535 33.9209 51.64 31.9341 51.64C29.9468 51.64 28.3602 50.0535 28.3602 48.0662C28.3602 46.079 29.9468 44.5002 31.9341 44.5002Z" fill="#43AC6F"/>
</svg>
