<svg width="80" height="80" viewBox="0 0 80 80" fill="none" xmlns="http://www.w3.org/2000/svg">
<path d="M8.73597 32.2226L7.96181 31.5056L4.20192 34.6194C4.18672 30.2946 4.15913 22.0133 4.15913 21.7112C4.15913 13.847 10.4898 7.44864 18.2708 7.44864C20.7199 7.44864 23.0239 8.08427 25.0333 9.1985C25.8035 8.68636 26.6075 8.22373 27.4452 7.81912C24.8181 6.04086 21.663 5 18.2708 5C9.15367 5 1.73709 12.4961 1.73709 21.7105C1.73709 22.1185 1.78889 37.2017 1.78889 37.2017L1.7979 39.7761L7.89998 34.7229C10.8338 37.1158 14.4784 38.4217 18.2726 38.4217C18.7118 38.4217 19.1425 38.3893 19.5732 38.3546C19.0389 37.5943 18.5547 36.7966 18.1245 35.9652C14.6377 35.9294 11.3085 34.6069 8.73659 32.2221L8.73597 32.2226Z" fill="#43AC6F"/>
<path d="M44.3646 7.53123C43.0375 7.25069 41.6638 7.10046 40.2562 7.10046C35.9102 7.10046 31.8868 8.51284 28.6026 10.9006C23.549 14.5744 20.2496 20.5641 20.2496 27.3212C20.2496 31.024 21.2439 34.4952 22.9707 37.4833C25.7441 42.2843 30.4161 45.8307 35.9411 47.0638C37.3317 47.3745 38.7747 47.5429 40.2566 47.5429C44.1246 47.5429 47.8541 46.4066 51.0588 44.3232C51.7214 43.8924 52.3689 43.4366 52.9821 42.9251L60.1933 48.8972L60.2023 46.3228C60.2023 46.3228 60.2642 27.8219 60.2642 27.3223C60.2637 17.595 53.432 9.45217 44.3647 7.5307L44.3646 7.53123ZM57.7865 43.7405L52.9119 39.7042L52.1377 40.4212C48.8874 43.4354 44.6669 45.0948 40.2551 45.0948C30.5588 45.0948 22.6707 37.122 22.6707 27.3223C22.6707 17.5223 30.5592 9.54985 40.2551 9.54985C49.9521 9.54985 57.8395 17.5227 57.8395 27.3223C57.8412 27.7053 57.8046 38.6385 57.7866 43.74L57.7865 43.7405Z" fill="#43AC6F"/>
<path d="M51.7039 27.3221C51.7039 28.628 50.6567 29.687 49.3641 29.687C48.0719 29.687 47.0242 28.628 47.0242 27.3221C47.0242 26.0155 48.072 24.9572 49.3641 24.9572C50.6568 24.9572 51.7039 26.0156 51.7039 27.3221Z" fill="#43AC6F"/>
<path d="M42.596 27.3221C42.596 28.628 41.5482 29.687 40.2561 29.687C38.964 29.687 37.9163 28.628 37.9163 27.3221C37.9163 26.0155 38.964 24.9572 40.2561 24.9572C41.5482 24.9572 42.596 26.0156 42.596 27.3221Z" fill="#43AC6F"/>
<path d="M33.4868 27.3221C33.4868 28.628 32.4395 29.687 31.1469 29.687C29.8547 29.687 28.807 28.628 28.807 27.3221C28.807 26.0155 29.8548 24.9572 31.1469 24.9572C32.4396 24.9572 33.4868 26.0156 33.4868 27.3221Z" fill="#43AC6F"/>
<path d="M0.0302428 77.2147L0.131585 78.421H21.8916L21.994 77.2056C22.0104 77.0343 22.0233 76.863 22.0233 76.6894C22.0233 71.8132 17.0834 67.8453 11.0112 67.8453C4.93891 67.8453 0 71.8126 0 76.6894C0.00112598 76.8664 0.0140752 77.0399 0.0304034 77.2147L0.0302428 77.2147ZM11.0116 70.2939C15.4218 70.2939 19.0668 72.7817 19.5465 75.9723L2.47664 75.9729C2.95633 72.7817 6.60133 70.2939 11.011 70.2939L11.0116 70.2939Z" fill="#43AC6F"/>
<path d="M5.15134 59.2281C5.15134 62.5997 7.55435 65.3414 10.5091 65.3414C13.4633 65.3414 15.8663 62.5986 15.8663 59.2281C15.8663 55.857 13.4633 53.1154 10.5091 53.1154C7.55435 53.1154 5.15134 55.8576 5.15134 59.2281ZM13.443 59.2281C13.443 61.2487 12.1266 62.8927 10.5091 62.8927C8.89091 62.8927 7.57409 61.2487 7.57409 59.2281C7.57409 57.208 8.89044 55.5646 10.5091 55.5646C12.1267 55.564 13.443 57.208 13.443 59.2281Z" fill="#43AC6F"/>
<path d="M50.989 67.8448C44.9173 67.8448 39.9768 71.8121 39.9768 76.6889C39.9768 76.8625 39.9903 77.0338 40.0061 77.2051L40.1097 78.4206H61.8682L61.9707 77.2051C61.987 77.0338 62 76.8625 62 76.6889C61.9989 71.8117 57.0601 67.8448 50.9884 67.8448H50.989ZM42.4541 75.9713C42.9338 72.7807 46.5788 70.2929 50.989 70.2929C55.3986 70.2929 59.0437 72.7807 59.5228 75.9713H42.4541Z" fill="#43AC6F"/>
<path d="M55.8434 59.2281C55.8434 55.857 53.4404 53.1154 50.4857 53.1154C47.5315 53.1154 45.1285 55.8581 45.1285 59.2281C45.1285 62.5997 47.5315 65.3414 50.4857 65.3414C53.4404 65.3414 55.8434 62.5997 55.8434 59.2281ZM47.5512 59.2281C47.5512 57.208 48.8676 55.5646 50.4851 55.5646C52.1033 55.5646 53.4201 57.2086 53.4201 59.2281C53.4201 61.2487 52.1038 62.8927 50.4851 62.8927C48.868 62.8921 47.5512 61.2487 47.5512 59.2281Z" fill="#43AC6F"/>
</svg>
