<svg width="100" height="81" viewBox="0 0 100 81" fill="none" xmlns="http://www.w3.org/2000/svg">
<circle opacity="0.5" cx="93.2846" cy="44.9378" r="2.58784" transform="rotate(155.982 93.2846 44.9378)" fill="#6FCF97"/>
<circle cx="89.3156" cy="9.19729" r="5.53459" transform="rotate(155.982 89.3156 9.19729)" fill="#7879F1" fill-opacity="0.5"/>
<circle cx="7.83379" cy="48.8543" r="4.91794" transform="rotate(155.982 7.83379 48.8543)" fill="#7879F1" fill-opacity="0.5"/>
<circle opacity="0.5" cx="9.9508" cy="25.5209" r="3.0966" transform="rotate(155.982 9.9508 25.5209)" fill="#6FCF97"/>
<path d="M28.4162 31.001L27.5914 30.2372L23.5859 33.5544C23.5697 28.9471 23.5403 20.1248 23.5403 19.803C23.5403 11.425 30.2846 4.60866 38.5738 4.60866C41.183 4.60866 43.6375 5.28582 45.7781 6.47284C46.5987 5.92724 47.4552 5.43438 48.3476 5.00335C45.5489 3.10891 42.1877 2.00006 38.5738 2.00006C28.8612 2.00006 20.9601 9.98581 20.9601 19.8022C20.9601 20.2369 21.0153 36.3054 21.0153 36.3054L21.0249 39.048L27.5256 33.6647C30.6511 36.2139 34.5338 37.6052 38.5758 37.6052C39.0437 37.6052 39.5025 37.5706 39.9614 37.5336C39.3922 36.7237 38.8763 35.8738 38.418 34.9881C34.7035 34.95 31.1568 33.5411 28.4168 31.0005L28.4162 31.001Z" fill="#6FCF97"/>
<path d="M66.3724 4.69664C64.9586 4.39777 63.4951 4.23773 61.9956 4.23773C57.3657 4.23773 53.0795 5.74237 49.5807 8.28609C44.1969 12.1999 40.682 18.581 40.682 25.7794C40.682 29.7241 41.7413 33.422 43.5809 36.6053C46.5355 41.72 51.5127 45.498 57.3986 46.8118C58.8801 47.1427 60.4174 47.3222 61.996 47.3222C66.1167 47.3222 70.0898 46.1116 73.5039 43.8921C74.2098 43.4332 74.8996 42.9476 75.5528 42.4026L83.2351 48.7649L83.2447 46.0224C83.2447 46.0224 83.3107 26.3129 83.3107 25.7806C83.3101 15.4179 76.0321 6.74307 66.3725 4.69608L66.3724 4.69664ZM80.6711 43.2713L75.4781 38.9714L74.6533 39.7353C71.1906 42.9464 66.6945 44.7142 61.9945 44.7142C51.6647 44.7142 43.2613 36.2205 43.2613 25.7806C43.2613 15.3404 51.6651 6.84713 61.9945 6.84713C72.3249 6.84713 80.7276 15.3408 80.7276 25.7806C80.7294 26.1886 80.6904 37.836 80.6712 43.2709L80.6711 43.2713Z" fill="#6FCF97"/>
<path d="M52.2912 28.2997C53.6683 28.2997 54.7839 27.1716 54.7839 25.7803C54.7839 24.3885 53.6684 23.2609 52.2912 23.2609C50.9147 23.2609 49.7985 24.3884 49.7985 25.7803C49.7985 27.1715 50.9146 28.2997 52.2912 28.2997Z" fill="#A5A6F6"/>
<path d="M64.4884 25.7803C64.4884 27.1716 63.3722 28.2997 61.9957 28.2997C60.6192 28.2997 59.5029 27.1715 59.5029 25.7803C59.5029 24.3884 60.6192 23.2609 61.9957 23.2609C63.3722 23.2609 64.4884 24.3885 64.4884 25.7803Z" fill="#A5A6F6"/>
<path d="M74.1912 25.7803C74.1912 27.1716 73.0755 28.2997 71.6984 28.2997C70.3219 28.2997 69.2057 27.1715 69.2057 25.7803C69.2057 24.3884 70.3219 23.2609 71.6984 23.2609C73.0756 23.2609 74.1912 24.3885 74.1912 25.7803Z" fill="#A5A6F6"/>
<path fill-rule="evenodd" clip-rule="evenodd" d="M30.3053 66.2833C27.1575 66.2833 24.5975 63.3626 24.5975 59.7706C24.5975 56.18 27.1575 53.2586 30.3053 53.2586C33.4525 53.2586 36.0125 56.1793 36.0125 59.7706C36.0125 63.3613 33.4525 66.2833 30.3053 66.2833ZM30.3053 63.6747C32.0285 63.6747 33.4308 61.9233 33.4308 59.7706C33.4308 57.6186 32.0286 55.8673 30.3053 55.8679C28.5809 55.8679 27.1786 57.6186 27.1786 59.7706C27.1786 61.9233 28.5814 63.6747 30.3053 63.6747Z" fill="#6FCF97"/>
<path fill-rule="evenodd" clip-rule="evenodd" d="M19.2498 80.2175L19.1418 78.9323C19.1244 78.7461 19.1108 78.5612 19.1096 78.3727C19.1096 73.1773 24.3712 68.9508 30.8401 68.9508C37.309 68.9508 42.5717 73.1779 42.5717 78.3727C42.5717 78.5576 42.5579 78.7401 42.5405 78.9226L42.4313 80.2175H19.2498ZM39.933 77.6088C39.422 74.2098 35.5389 71.5594 30.8405 71.5594C26.1428 71.5594 22.2591 74.2097 21.748 77.6094L39.933 77.6088Z" fill="#6FCF97"/>
<path fill-rule="evenodd" clip-rule="evenodd" d="M72.8933 53.2586C76.0411 53.2586 78.6011 56.1793 78.6011 59.7706C78.6011 63.3626 76.0411 66.2833 72.8933 66.2833C69.7461 66.2833 67.1862 63.3626 67.1862 59.7706C67.1862 56.1806 69.7461 53.2586 72.8933 53.2586ZM72.8927 55.8679C71.1695 55.8679 69.7672 57.6186 69.7672 59.7706C69.7672 61.9233 71.17 63.6741 72.8927 63.6747C74.6171 63.6747 76.0195 61.9233 76.0195 59.7706C76.0195 57.6192 74.6166 55.8679 72.8927 55.8679Z" fill="#6FCF97"/>
<path fill-rule="evenodd" clip-rule="evenodd" d="M61.698 78.3722C61.698 73.1768 66.9612 68.9503 73.4296 68.9503C79.8979 68.9503 85.1587 73.1764 85.1599 78.3722C85.1599 78.5571 85.1461 78.7396 85.1287 78.9221L85.0195 80.217H61.8395L61.7292 78.9221C61.7124 78.7396 61.698 78.5571 61.698 78.3722ZM73.4296 71.5583C68.7312 71.5583 64.8481 74.2087 64.3371 77.6077H82.5208C82.0104 74.2087 78.1273 71.5583 73.4296 71.5583Z" fill="#6FCF97"/>
</svg>
